# xmcd
#
# Track frame offsets:
#	150
#	13257
#	32755
#	62990
#	85760
#	98822
#	109216
#	139381
#
# Disc length: 2230 seconds
#
# Revision: 0
# Processed by: cddbd v1.5.1PL0 Copyright (c) Steve Scherf et al.
# Submitted via: dBpowerAMP V4.0
#
DISCID=6c08b408
DTITLE=the Backbones - the Backbones
DYEAR=1900
DGENRE=
TTITLE0=Lonesome
TTITLE1=Q's Blues
TTITLE2=Backbone Boogie
TTITLE3=The Freeze
TTITLE4=Good Time Charly
TTITLE5=Reelin' and Rockin'
TTITLE6=Years Old
TTITLE7=Flamenco Dancin'
EXTD=
EXTT0=
EXTT1=
EXTT2=
EXTT3=
EXTT4=
EXTT5=
EXTT6=
EXTT7=
PLAYORDER=
